<?xml version="1.0" encoding="iso-8859-1"?>
<!-- Generator: Adobe Illustrator 19.0.0, SVG Export Plug-In . SVG Version: 6.00 Build 0)  -->
<svg version="1.1" id="Layer_1" xmlns="http://www.w3.org/2000/svg" xmlns:xlink="http://www.w3.org/1999/xlink" x="0px" y="0px"
	 viewBox="0 0 501.999 501.999" style="enable-background:new 0 0 501.999 501.999;" xml:space="preserve">
<g>
	<g>
		<g>
			<path d="M371.5,52.138c-48.289,0-99.403,8.434-120.5,26.564c-21.097-18.131-72.211-26.564-120.5-26.564
				C67.647,52.138,0,66.424,0,97.786v342v0.074c0,5.523,4.477,10,10,10c0.394,0,0.781-0.029,1.163-0.074h238.669
				c0.052,0.006,0.103,0.017,0.155,0.023c0.333,0.033,0.67,0.051,1.012,0.051c0.342,0,0.679-0.018,1.012-0.051
				c0.053-0.005,0.103-0.017,0.156-0.023h238.669c0.382,0.044,0.769,0.074,1.163,0.074c5.523,0,10-4.477,10-10
				c0-0.012,0-0.023,0-0.035c0-0.013,0-0.026,0-0.039v-342C502,66.424,434.353,52.138,371.5,52.138z M33.073,429.786
				c3.882-1.808,8.834-3.706,15.136-5.566c21.855-6.454,51.08-10.008,82.291-10.008s60.436,3.554,82.291,10.008
				c6.302,1.86,11.253,3.758,15.136,5.566H33.073z M241,414.023c-24.733-13.481-68.702-19.811-110.5-19.811
				c-41.798,0-85.767,6.33-110.5,19.811V97.786c0-1.448,5.006-8.777,28.13-15.618c21.864-6.468,51.117-10.03,82.37-10.03
				s60.506,3.562,82.37,10.03C235.994,89.01,241,96.338,241,97.786V414.023z M274.073,429.786c3.882-1.808,8.834-3.706,15.136-5.566
				c21.855-6.454,51.08-10.008,82.291-10.008s60.436,3.554,82.291,10.008c6.302,1.86,11.253,3.758,15.136,5.566H274.073z
				 M482,414.023c-24.733-13.481-68.702-19.811-110.5-19.811c-41.798,0-85.767,6.33-110.5,19.811V97.786
				c0-1.448,5.006-8.777,28.13-15.618c21.864-6.468,51.117-10.03,82.37-10.03s60.506,3.562,82.37,10.03
				C476.994,89.01,482,96.338,482,97.786V414.023z"/>
			<path d="M100.77,129.187c9.651-0.745,19.653-1.123,29.73-1.123c28.459,0,55.799,3.033,76.984,8.54
				c0.843,0.219,1.689,0.324,2.522,0.324c4.444,0,8.501-2.985,9.671-7.487c1.39-5.345-1.817-10.805-7.163-12.194
				c-22.781-5.922-51.908-9.183-82.016-9.183c-10.588,0-21.109,0.397-31.27,1.182c-5.506,0.425-9.626,5.233-9.201,10.74
				C90.455,125.492,95.27,129.622,100.77,129.187z"/>
			<path d="M50.993,136.929c0.833,0,1.679-0.105,2.522-0.324c4.476-1.164,9.297-2.232,14.331-3.178
				c5.428-1.02,9.001-6.247,7.982-11.674c-1.02-5.428-6.248-9.003-11.674-7.982c-5.481,1.03-10.753,2.2-15.669,3.477
				c-5.346,1.389-8.553,6.849-7.164,12.194C42.492,133.942,46.549,136.929,50.993,136.929z"/>
			<path d="M212.516,168.969c-22.779-5.922-51.906-9.183-82.016-9.183c-30.11,0-59.237,3.261-82.016,9.183
				c-5.345,1.39-8.552,6.849-7.162,12.194c1.39,5.345,6.85,8.551,12.194,7.162c21.183-5.507,48.523-8.54,76.984-8.54
				s55.801,3.033,76.984,8.54c0.844,0.219,1.69,0.324,2.523,0.324c4.444,0,8.501-2.985,9.671-7.486
				C221.068,175.818,217.861,170.359,212.516,168.969z"/>
			<path d="M212.516,220.664c-22.779-5.922-51.906-9.183-82.016-9.183c-30.11,0-59.237,3.261-82.016,9.183
				c-5.345,1.39-8.552,6.849-7.162,12.194c1.39,5.345,6.85,8.551,12.194,7.162c21.183-5.507,48.523-8.54,76.984-8.54
				s55.801,3.033,76.984,8.54c0.844,0.219,1.69,0.324,2.523,0.324c4.444,0,8.501-2.985,9.671-7.486
				C221.068,227.513,217.861,222.054,212.516,220.664z"/>
			<path d="M53.515,291.743c21.186-5.507,48.525-8.54,76.984-8.54c28.459,0,55.799,3.033,76.984,8.54
				c0.843,0.219,1.689,0.324,2.522,0.324c4.444,0,8.501-2.985,9.671-7.487c1.392-5.346-1.815-10.805-7.16-12.194
				c-22.781-5.922-51.908-9.183-82.016-9.183c-30.108,0-59.235,3.261-82.016,9.183c-5.345,1.389-8.552,6.849-7.163,12.194
				C42.71,289.925,48.171,293.133,53.515,291.743z"/>
			<path d="M212.516,324.109c-22.779-5.922-51.906-9.183-82.016-9.183s-59.237,3.261-82.016,9.183
				c-5.345,1.39-8.552,6.849-7.162,12.194c1.39,5.345,6.85,8.552,12.194,7.162c21.183-5.507,48.523-8.54,76.984-8.54
				s55.801,3.033,76.984,8.54c0.844,0.219,1.69,0.324,2.523,0.324c4.444,0,8.501-2.985,9.671-7.486
				C221.068,330.958,217.861,325.497,212.516,324.109z"/>
			<path d="M294.516,136.604c21.186-5.507,48.525-8.54,76.984-8.54c28.459,0,55.799,3.033,76.984,8.54
				c0.843,0.219,1.689,0.324,2.522,0.324c4.444,0,8.501-2.985,9.671-7.487c1.39-5.345-1.817-10.805-7.163-12.194
				c-22.781-5.922-51.908-9.183-82.016-9.183c-30.108,0-59.235,3.261-82.016,9.183c-5.345,1.389-8.552,6.849-7.163,12.194
				C283.711,134.786,289.171,137.994,294.516,136.604z"/>
			<path d="M453.516,168.971c-22.779-5.922-51.906-9.183-82.016-9.183s-59.237,3.261-82.016,9.183
				c-5.345,1.39-8.552,6.849-7.162,12.194c1.39,5.345,6.849,8.551,12.194,7.162c21.183-5.507,48.523-8.54,76.984-8.54
				s55.801,3.033,76.984,8.54c0.844,0.219,1.69,0.324,2.523,0.324c4.444,0,8.501-2.985,9.671-7.486
				C462.068,175.82,458.861,170.359,453.516,168.971z"/>
			<path d="M453.516,220.664c-22.779-5.922-51.906-9.183-82.016-9.183s-59.237,3.261-82.016,9.183
				c-5.345,1.39-8.552,6.849-7.162,12.194c1.39,5.345,6.849,8.552,12.194,7.162c21.183-5.507,48.523-8.54,76.984-8.54
				s55.801,3.033,76.984,8.54c0.844,0.219,1.69,0.324,2.523,0.324c4.444,0,8.501-2.985,9.671-7.486
				C462.068,227.513,458.861,222.054,453.516,220.664z"/>
			<path d="M294.515,291.743c21.186-5.507,48.525-8.54,76.984-8.54c28.459,0,55.799,3.033,76.984,8.54
				c0.843,0.219,1.689,0.324,2.522,0.324c4.444,0,8.501-2.985,9.671-7.487c1.392-5.346-1.815-10.805-7.16-12.194
				c-22.781-5.922-51.908-9.183-82.016-9.183c-30.108,0-59.235,3.261-82.016,9.183c-5.345,1.389-8.552,6.849-7.163,12.194
				C283.71,289.925,289.17,293.133,294.515,291.743z"/>
			<path d="M453.516,324.109c-22.779-5.922-51.906-9.183-82.016-9.183s-59.237,3.261-82.016,9.183
				c-5.345,1.39-8.552,6.849-7.162,12.194c1.39,5.345,6.849,8.552,12.194,7.162c21.183-5.507,48.523-8.54,76.984-8.54
				s55.801,3.033,76.984,8.54c0.844,0.219,1.69,0.324,2.523,0.324c4.444,0,8.501-2.985,9.671-7.486
				C462.068,330.958,458.861,325.497,453.516,324.109z"/>
		</g>
	</g>
</g>
<g>
</g>
<g>
</g>
<g>
</g>
<g>
</g>
<g>
</g>
<g>
</g>
<g>
</g>
<g>
</g>
<g>
</g>
<g>
</g>
<g>
</g>
<g>
</g>
<g>
</g>
<g>
</g>
<g>
</g>
</svg>
